<?xml version="1.0" encoding="utf-8"?>

<!DOCTYPE svg PUBLIC "-//W3C//DTD SVG 1.1//EN" "http://www.w3.org/Graphics/SVG/1.1/DTD/svg11.dtd">
<!-- Uploaded to: SVG Repo, www.svgrepo.com, Generator: SVG Repo Mixer Tools -->
<svg height="800px" width="800px" version="1.1" id="_x32_" xmlns="http://www.w3.org/2000/svg" xmlns:xlink="http://www.w3.org/1999/xlink" 
	 viewBox="0 0 512 512"  xml:space="preserve">
<style type="text/css">
	.st0{fill:#000000;}
</style>
<g>
	<path class="st0" d="M426.641,282.818l85.355-49.028l-10.362-20.043l-77.836,44.694l-61.896-9.506
		c0.138-5.487-0.137-10.92-0.794-16.261c13.586-0.948,26.332-6.213,36.082-15.963c11.951-11.951,17.163-28.388,15.94-45.344
		c36.878-11.462,37.917-37.626,37.886-50.724c-0.046-14.252-13.265-9.384-14.672-5.594c-8.344,21.075-23.811,23.91-36.113,19.715
		c-2.965-4.432-6.404-8.673-10.362-12.632c-3.958-3.951-8.207-7.397-12.639-10.369c-4.187-12.295-1.36-27.761,19.73-36.113
		c3.775-1.398,8.65-14.618-5.609-14.657c-13.097-0.038-39.262,1.002-50.724,37.871c-16.949-1.207-33.394,3.996-45.344,15.94
		c-9.75,9.758-15.008,22.504-15.971,36.091c-5.334-0.665-10.759-0.932-16.245-0.802l-9.506-61.888l44.688-77.844L278.214,0
		l-49.028,85.371l10.408,67.741c-10.683,2.453-21.274,6.396-31.453,11.798l-36.846-28.831l-95.427-23.566l-7.305,22.718
		l90.964,22.474l27.234,21.312c-4.02,3.218-7.947,6.672-11.691,10.424c-5.242,5.242-9.949,10.804-14.152,16.567l-72.136-4.035
		L0.003,249.7l9.736,20.403l82.589-44.412l55.079,3.079c-19.516,41.944-14.901,89.688,15.619,120.208
		c30.52,30.513,78.264,35.128,120.2,15.612l3.088,55.079l-44.412,82.597L262.304,512l47.728-88.778l-4.034-72.135
		c5.761-4.211,11.309-8.91,16.567-14.152c3.744-3.752,7.198-7.672,10.422-11.692l21.305,27.22l22.481,90.979l22.711-7.306
		l-23.567-95.434l-28.823-36.839c5.394-10.179,9.337-20.778,11.798-31.452L426.641,282.818z"/>
</g>
</svg>